REM MD5 9cfd1521b5f6cc0d5c0c5b894f75f6fd
FILE "Shuukan Gallop - Blood Master (Japan) (Disc 2).bin" BINARY
  TRACK 01 MODE2/2352
    INDEX 01 00:00:00
  TRACK 02 AUDIO
    INDEX 00 09:45:58
    INDEX 01 09:47:58
  TRACK 03 AUDIO
    INDEX 00 12:59:65
    INDEX 01 13:01:65
REM LEADOUT 16:01:65
